<?xml version="1.0" encoding="utf-8"?>
<svg viewBox="0 0 510 300" xmlns="http://www.w3.org/2000/svg" xmlns:bx="https://boxy-svg.com">
  <defs>
    <style bx:fonts="Roboto">@font-face { font-family: Roboto; font-style: normal; font-weight: 400; font-stretch: normal; font-variant: normal; font-feature-settings: normal; src: url("https://fonts.gstatic.com/s/roboto/v18/KFOmCnqEu92Fr1Me5Q.ttf"); }</style>
  </defs>
  <text style="fill: rgb(51, 51, 51); font-family: Roboto; font-size: 14px; white-space: pre;" x="160.008" y="273.18" transform="matrix(1, 0, 0, 0.998051, 190.000122, -159.532608)">Location for content </text>
  <rect x="340" y="100" width="4" height="75" style="fill: rgb(170, 170, 170);"/>
  <text transform="matrix(1, 0, 0, 0.998051, -129.999695, -159.555649)" style="fill: rgb(51, 51, 51); font-family: Roboto; font-size: 14px; white-space: pre;" x="160.008" y="273.18">Generate a pptx file </text>
  <text style="fill: rgb(51, 51, 51); font-family: 'Roboto Mono'; font-size: 8px; white-space: pre;" x="160.008" y="293.18" transform="matrix(1, 0, 0, 0.998051, -129.999695, -165.442596)">print(..., target='file.pptx')</text>
  <rect y="100" width="4" height="30" style="fill: rgb(170, 170, 170);" x="20"/>
  <text style="fill: rgb(51, 51, 51); font-family: Roboto; font-size: 14px; white-space: pre;" x="160.008" y="273.18" transform="matrix(1, 0, 0, 0.998051, -130, -199.555649)">Add new slide</text>
  <text transform="matrix(1, 0, 0, 0.998051, -130, -205.48938)" style="fill: rgb(51, 51, 51); font-family: &quot;Roboto Mono&quot;; font-size: 8px; white-space: pre;" x="160.00799560546875" y="293.17999267578125"><tspan>add_slide()</tspan></text>
  <rect y="60" width="4" height="30" style="fill: rgb(170, 170, 170);" x="20"/>
  <text style="fill: rgb(51, 51, 51); font-family: Roboto; font-size: 14px; white-space: pre;" x="30" y="153.109">Add content to slide at a location</text>
  <text style="fill: rgb(235, 85, 85); font-family: &quot;Roboto Mono&quot;; font-size: 8px; white-space: pre;" x="30" y="167.171">ph_with()</text>
  <text style="fill: rgb(51, 51, 51); font-family: 'Roboto Mono'; font-size: 8px; white-space: pre;" x="350.038" y="126.997">ph_location_type(), ph_location()</text>
  <text style="fill: rgb(51, 51, 51); font-family: 'Roboto Mono'; font-size: 8px; white-space: pre;" x="350.038" y="141.997">ph_location_label(), ph_location_template()</text>
  <text style="fill: rgb(51, 51, 51); font-family: 'Roboto Mono'; font-size: 8px; white-space: pre;" x="350.038" y="156.997">ph_location_fullsize()</text>
  <text style="fill: rgb(51, 51, 51); font-family: 'Roboto Mono'; font-size: 8px; white-space: pre;" x="350.038" y="171.997">ph_location_left(), ph_location_right()</text>
  <rect x="20" y="140" width="4" height="30" style="fill: rgb(170, 170, 170);"/>
  <text style="fill: rgb(51, 51, 51); font-family: Roboto; font-size: 14px; white-space: pre;" x="350" y="33.077">Supported content</text>
  <text style="font-family: &quot;Roboto Mono&quot;; font-size: 8px; white-space: pre;" x="350" y="48.29">vectors, data.frame, ggplot, images, </text>
  <text style="fill: rgb(51, 51, 51); font-family: &quot;Roboto Mono&quot;; font-size: 8px; white-space: pre;" y="63.29" x="350">block_list(), unordered_list() </text>
  <text style="fill: rgb(235, 85, 85); font-family: &quot;Roboto Mono&quot;; font-size: 8px; white-space: pre;" x="350" y="78.29">flextable::flextable(), rvg::dml()</text>
  <rect x="340" y="19.969" width="4" height="62" style="fill: rgb(170, 170, 170);"/>
  <text style="fill: rgb(51, 51, 51); font-family: Roboto; font-size: 14px; white-space: pre;" x="160.008" y="273.18" transform="matrix(1, 0, 0, 0.998051, -97.952087, -59.727192)">Slide utilities</text>
  <text transform="matrix(1, 0, 0, 0.998051, -97.952087, -59.727192)" style="fill: rgb(51, 51, 51); font-family: &quot;Roboto Mono&quot;; font-size: 8px; white-space: pre;" x="160.008" y="293.18">on_slide() </text>
  <text style="fill: rgb(51, 51, 51); font-family: 'Roboto Mono'; font-size: 8px; white-space: pre;" x="160.008" y="308.18" transform="matrix(1, 0, 0, 0.998051, -97.952087, -59.727192)">move_slide() </text>
  <rect y="200.804" width="4" height="67" style="fill: rgb(170, 170, 170);" x="52.047"/>
  <text style="fill: rgb(51, 51, 51); font-family: 'Roboto Mono'; font-size: 8px; white-space: pre;" x="160.008" y="308.18" transform="matrix(1, 0, 0, 0.998051, -97.9506, -44.696247)">remove_slide() </text>
  <text style="fill: rgb(51, 51, 51); font-family: 'Roboto Mono'; font-size: 8px; white-space: pre;" x="160.008" y="308.18" transform="matrix(1, 0, 0, 0.998051, 22.351517, -78.374092)">ph_remove() </text>
  <text style="fill: rgb(51, 51, 51); font-family: 'Roboto Mono'; font-size: 8px; white-space: pre;" x="160.008" y="308.18" transform="matrix(1, 0, 0, 0.998051, 22.351517, -63.374092)">ph_slidelink() </text>
  <text style="fill: rgb(51, 51, 51); font-family: 'Roboto Mono'; font-size: 8px; white-space: pre;" x="160.008" y="308.18" transform="matrix(1, 0, 0, 0.998051, 22.351517, -48.374092)">ph_hyperlink() </text>
  <linearGradient id="SVGID_1_" gradientUnits="userSpaceOnUse" x1="170.6454" y1="1450.1008" x2="811.6547" y2="339.8992" gradientTransform="matrix(1, 0, 0, -1, 0, 1788)">
    <stop offset="0" style="stop-color:#CA4C28"/>
    <stop offset="0.5" style="stop-color:#C5401E"/>
    <stop offset="1" style="stop-color:#B62F14"/>
  </linearGradient>
  <g transform="matrix(0.067189, 0, 0, 0.067189, 187.500244, 17)">
    <path fill="#ED6C47" d="M 1160.9 982.3 L 1026.95 0 L 1016.948 0 C 529.872 1.422 135.372 395.922 133.95 882.998 L 133.95 893 L 1160.9 982.3 Z"/>
    <path fill="#FF8F6B" d="M 1036.952 0 L 1026.95 0 L 1026.95 893 L 1473.45 1071.6 L 1919.95 893 L 1919.95 882.998 C 1918.528 395.922 1524.028 1.422 1036.952 0 Z"/>
    <path fill="#D35230" d="M 1919.95 893 L 1919.95 902.823 C 1918.552 1390.008 1523.958 1784.602 1036.773 1786 L 1017.127 1786 C 529.942 1784.602 135.348 1390.008 133.95 902.823 L 133.95 893 L 1919.95 893 Z"/>
    <path opacity="0.1" enable-background="new    " d="M 1071.6 438.909 L 1071.6 1391.74 C 1071.378 1424.849 1051.314 1454.592 1020.699 1467.198 C 1010.951 1471.321 1000.475 1473.447 989.89 1473.449 L 344.698 1473.449 C 332.196 1459.161 320.141 1443.98 308.978 1428.799 C 195.223 1277.05 133.802 1092.475 133.95 902.822 L 133.95 883.176 C 133.689 712.114 183.683 544.743 277.723 401.849 C 287.546 386.668 297.815 371.487 308.978 357.199 L 989.89 357.199 C 1034.876 357.54 1071.26 393.924 1071.6 438.909 Z"/>
    <path opacity="0.2" enable-background="new    " d="M 1026.95 483.56 L 1026.95 1436.391 C 1026.948 1446.975 1024.822 1457.452 1020.699 1467.199 C 1008.093 1497.814 978.349 1517.878 945.24 1518.1 L 385.329 1518.1 C 371.202 1503.758 357.647 1488.863 344.697 1473.45 C 332.195 1459.162 320.14 1443.981 308.977 1428.8 C 195.222 1277.051 133.801 1092.475 133.949 902.823 L 133.949 883.177 C 133.688 712.115 183.682 544.744 277.722 401.85 L 945.24 401.85 C 990.226 402.19 1026.61 438.574 1026.95 483.56 Z"/>
    <path opacity="0.2" enable-background="new    " d="M 1026.95 483.56 L 1026.95 1347.091 C 1026.61 1392.076 990.226 1428.46 945.241 1428.801 L 308.978 1428.801 C 195.223 1277.052 133.802 1092.476 133.95 902.824 L 133.95 883.178 C 133.689 712.116 183.683 544.745 277.723 401.851 L 945.24 401.851 C 990.226 402.19 1026.61 438.574 1026.95 483.56 Z"/>
    <path opacity="0.2" enable-background="new    " d="M 982.3 483.56 L 982.3 1347.091 C 981.96 1392.076 945.576 1428.46 900.591 1428.801 L 308.978 1428.801 C 195.223 1277.052 133.802 1092.476 133.95 902.824 L 133.95 883.178 C 133.689 712.116 183.683 544.745 277.723 401.851 L 900.59 401.851 C 945.576 402.19 981.96 438.574 982.3 483.56 Z"/>
    <path fill="url(#SVGID_1_)" d="M 81.843 401.85 L 900.456 401.85 C 945.657 401.85 982.299 438.493 982.299 483.693 L 982.299 1302.306 C 982.299 1347.507 945.656 1384.15 900.456 1384.15 L 81.843 1384.15 C 36.643 1384.15 0 1347.507 0 1302.307 L 0 483.693 C 0 438.493 36.643 401.85 81.843 401.85 Z"/>
    <path fill="#FFFFFF" d="M 500.08 620.144 C 553.369 616.548 606.199 632.027 649.122 663.812 C 684.922 695.773 704.051 742.411 701.005 790.305 C 701.59 823.599 692.718 856.376 675.421 884.829 C 657.909 912.793 632.679 935.092 602.775 949.036 C 568.588 964.936 531.211 972.787 493.516 971.986 L 389.973 971.986 L 389.973 1164.427 L 283.929 1164.427 L 283.929 620.144 L 500.08 620.144 Z M 389.884 888.848 L 481.149 888.848 C 510.082 890.973 538.79 882.41 561.832 864.782 C 580.89 846.5 590.879 820.719 589.113 794.369 C 589.113 734.389 554.256 704.399 484.543 704.399 L 389.885 704.399 L 389.885 888.848 Z"/>
  </g>
  <rect y="200.031" width="4" height="67" style="fill: rgb(170, 170, 170);" x="172.047"/>
  <text style="fill: rgb(51, 51, 51); font-family: Roboto; font-size: 14px; white-space: pre;" x="160.008" y="273.18" transform="matrix(1, 0, 0, 0.998051, 21.937042, -59.043892)">Shape utilities</text>
  <text style="fill: rgb(51, 51, 51); font-family: Roboto; font-size: 14px; white-space: pre;" x="160.008" y="273.18" transform="matrix(1, 0, 0, 0.998051, -129.982697, -239.555649)">Initialise</text>
  <text transform="matrix(1, 0, 0, 0.998051, -129.982697, -245.48938)" style="fill: rgb(51, 51, 51); font-family: &quot;Roboto Mono&quot;; font-size: 8px; white-space: pre;" x="160.00799560546875" y="293.17999267578125"><tspan>read_pptx()</tspan></text>
  <rect y="20" width="4" height="30" style="fill: rgb(170, 170, 170);" x="20.017"/>
  <text style="fill: rgb(51, 51, 51); font-family: Roboto; font-size: 14px; white-space: pre;" x="160.008" y="273.18" transform="matrix(1, 0, 0, 0.998051, 152.046875, -59.500931)">Presentation informations</text>
  <rect x="302.047" y="200.031" width="4" height="75" style="fill: rgb(170, 170, 170);"/>
  <text style="fill: rgb(51, 51, 51); font-family: 'Roboto Mono'; font-size: 8px; white-space: pre;" x="312.085" y="227.028">layout_summary(), slide_size()</text>
  <text style="fill: rgb(51, 51, 51); font-family: 'Roboto Mono'; font-size: 8px; white-space: pre;" x="312.085" y="242.028">slide_summary(), slide_properties()</text>
  <text style="fill: rgb(51, 51, 51); font-family: 'Roboto Mono'; font-size: 8px; white-space: pre;" x="312.085" y="257.028">slide_properties(), pptx_summary()</text>
  <text style="fill: rgb(51, 51, 51); font-family: 'Roboto Mono'; font-size: 8px; white-space: pre;" x="312.085" y="272.028">color_scheme(), annotate_base()</text>
</svg>