<?xml version="1.0" encoding="utf-8"?>
<svg viewBox="0 0 124.44 144.00" id="svg2" version="1.1" xmlns="http://www.w3.org/2000/svg">
  <defs id="defs4">
    <style type="text/css" id="style6">
    line, polyline, path, rect, circle {
      fill: none;
      stroke: #000000;
      stroke-linecap: round;
      stroke-linejoin: round;
      stroke-miterlimit: 10.00;
    }
  </style>
  </defs>
  <polyline points="2.285 37.429 2.285 106.799 62.105 141.486 121.926 106.799 121.926 37.429 62.105 2.743 2.285 37.429" style="stroke-width: 4; fill-opacity: 0.5; fill: rgb(240, 240, 240); stroke: rgb(0, 102, 153);" clip-path="url(#cpMHwxMjQuNDQxfDE0My45OTd8MC4xNDMxMzc=)" id="polyline29"/>
  <text x="0" y="50" transform="matrix(0.866025, -0.5, 0.5, 0.866026, 46.601307, 88.062561)" style="fill: rgb(0, 102, 153); font-family: sans-serif; font-size: 7px; white-space: pre;">www.ardata.fr</text>
  <text x="8.134" y="104.286" transform="matrix(0.866025, -0.5, 0.5, 0.866026, -44.563812, -36.882568)" style="fill: rgb(0, 102, 153); font-family: sans-serif; font-size: 19px; font-weight: bold; letter-spacing: 0.3px; white-space: pre;">officer</text>
  <path fill-rule="evenodd" clip-rule="evenodd" d="M 20.265 55.608 C 20.265 55.044 20.265 54.479 20.265 53.915 C 23.045 52.631 26.227 52.721 29.37 52.221 C 29.87 52.142 30.445 51.824 30.977 51.738 C 32.639 51.467 34.433 51.746 35.262 50.649 C 43.531 53.197 52.76 55.485 61.105 58.148 C 62.111 58.469 63.015 58.979 64.051 59.358 C 66.502 60.254 69.154 60.75 71.55 61.535 C 72.725 61.92 73.821 62.55 74.897 62.987 C 75.962 63.418 77.008 64.098 78.245 64.076 C 77.771 63.496 76.358 63.764 76.103 62.987 C 82.494 64.229 86.994 67.18 93.377 68.43 C 92.773 67.604 90.589 67.159 89.092 66.737 C 89.164 66.088 90.054 66.897 90.297 66.495 C 85.116 64.844 79.865 63.258 74.362 61.898 C 74.559 61.38 75.181 61.973 75.701 61.898 C 73.883 61.068 71.673 60.632 69.542 60.084 C 67.424 59.539 65.226 59.191 63.248 58.511 C 64.363 57.923 65.761 58.697 66.864 58.874 C 72.979 59.855 78.849 62.038 84.941 63.834 C 90.022 65.331 95.087 67.21 99.803 69.156 C 101.34 69.79 102.847 69.954 104.088 70.849 C 104.345 73.154 103.998 75.016 103.553 76.414 C 102.125 75.991 100.413 77.099 99.803 75.809 C 97.064 76.122 94.279 77.541 91.1 77.503 C 90.969 77.983 91.848 77.553 91.77 77.987 C 91.604 80.216 91.203 82.233 90.966 84.398 C 90.901 84.702 91.579 84.106 91.636 84.519 C 92.351 82.831 91.886 79.665 92.706 77.746 C 93.415 78.264 92.932 79.334 92.84 80.165 C 92.671 81.694 93.093 83.926 92.439 85.245 C 91.649 86.839 88.368 87.647 86.412 88.148 C 83.899 88.792 81.156 89.222 78.646 89.116 C 75.989 91.877 73.047 94.38 69.674 96.494 C 62.52 100.459 52.69 105.78 40.618 105.324 C 36.153 105.156 31.625 104.699 28.165 102.905 C 26.256 101.915 23.356 99.513 23.612 96.857 C 24.164 91.131 29.716 88.105 31.512 83.309 C 30.473 82.01 31.678 80.631 31.646 79.438 C 31.628 78.75 31.113 78.225 31.244 77.503 C 31.367 76.83 31.929 76.415 31.78 75.446 C 31.732 75.135 31.404 74.922 31.378 74.599 C 31.337 74.073 31.895 73.493 31.378 72.906 C 32.223 72.603 31.82 71.924 32.048 71.091 C 31.738 70.525 30.749 70.571 30.307 70.124 C 29.345 65.121 27.652 59.799 22.541 58.148 C 22.059 57.052 20.838 56.622 20.265 55.608 Z M 36.199 54.762 C 36.156 54.598 36.008 54.531 36.065 54.278 C 35.906 53.981 35.559 54.526 35.395 54.157 C 35.443 53.717 35.667 53.435 35.797 53.069 C 35.304 52.99 34.974 52.764 35.128 52.102 C 35.442 52.063 35.63 51.91 36.065 51.981 C 36.129 50.795 34.893 51.721 34.592 51.981 C 34.592 52.263 34.592 52.545 34.592 52.827 C 33.937 52.922 33.604 53.306 33.119 53.553 C 32.721 53.504 32.563 52.612 32.048 53.069 C 33.396 53.907 33.238 56.108 34.458 57.061 C 33.274 56.987 32.957 56.827 32.048 56.456 C 31.035 57.709 32.698 59.429 32.583 61.053 C 32.205 61.799 31.697 62.429 31.646 63.472 C 33.213 65.007 34.23 67.104 34.458 69.399 C 34.515 69.971 34.648 70.58 35.261 70.609 C 35.079 70.035 35.044 69.21 35.395 68.794 C 34.634 67.95 34.625 66.427 33.922 65.528 C 34.205 65.315 34.318 65.256 34.726 65.408 C 34.651 64.495 33.876 62.334 34.726 61.053 C 35.372 60.079 37.184 59.838 37.405 61.053 C 37.192 61.385 36.862 61.611 36.735 62.021 C 38.314 62.272 39.564 63.103 39.011 64.319 C 39.518 64.494 39.268 63.986 39.681 64.077 C 39.57 64.687 39.816 64.785 40.217 65.408 C 39.889 65.714 39.932 65.152 39.413 65.287 C 39.212 65.467 39.373 65.976 38.878 65.891 C 38.315 64.619 38.371 62.164 36.333 62.625 C 36.205 63.385 37.435 62.92 37.271 63.713 C 37.329 64.17 36.621 64.301 37.004 64.681 C 37.743 64.729 37.346 64.02 37.539 63.834 C 37.844 63.8 38.043 63.863 38.075 64.076 C 37.698 65.605 38.915 66.364 39.548 67.342 C 39.351 68.157 39.951 68.673 40.217 69.399 C 40.503 68.386 41.294 68.486 41.824 67.826 C 41.585 67.52 41.003 68.113 40.887 67.585 C 41.021 67.424 41.013 67.135 41.288 67.101 C 41.554 67.102 41.459 67.431 41.824 67.343 C 42.282 66.614 42.096 65.217 41.824 64.44 C 42.098 64.15 42.227 63.586 41.69 63.472 C 40.673 64.143 42.004 65.628 41.556 66.496 C 41.301 66.444 41.22 66.235 40.887 66.254 C 40.741 66.566 40.548 66.836 40.217 66.98 C 39.965 66.764 39.598 66.653 39.414 66.375 C 39.592 66.012 39.939 65.801 40.619 65.891 C 40.825 64.163 39.351 63.385 39.28 61.9 C 38.681 61.939 38.176 62.155 37.941 61.658 C 38.029 60.853 37.492 60.612 37.271 60.086 C 37.453 60.048 37.527 59.914 37.808 59.965 C 38.573 60.886 39.81 61.382 40.486 62.384 C 40.699 62.295 40.455 61.792 40.888 61.9 C 41.169 62.291 40.793 63.275 41.691 63.11 C 42.043 62.757 41.572 62.413 41.691 61.9 C 40.146 60.547 37.86 58.597 35.264 58.997 C 35.682 59.131 36.548 58.875 36.603 59.602 C 35.857 59.597 35.431 59.908 34.727 60.207 C 34.542 59.605 35.345 59.494 34.995 59.118 C 34.131 59.026 34.637 59.897 33.924 59.481 C 33.781 59.933 34.256 59.826 34.192 60.207 C 33.076 60.938 32.989 59.618 32.853 58.877 C 33.142 58.604 33.309 58.976 33.79 58.877 C 34.978 57.837 36.698 58.523 38.61 58.877 C 38.802 58.716 38.802 58.191 38.61 58.03 C 37.498 58.352 36.643 57.714 35.397 57.788 C 35.319 57.536 35.065 57.443 35.129 57.063 C 35.57 56.815 36.15 57.3 36.468 57.546 C 36.539 56.769 37.283 57.185 37.807 57.304 C 37.954 56.606 37.281 56.65 37.405 55.974 C 37.507 55.662 37.832 55.554 38.343 55.611 C 38.396 55.159 38.236 54.901 37.807 54.885 C 37.382 55.499 36.98 55.578 36.334 55.49 C 36.374 55.938 36.923 55.925 36.736 56.579 C 36.185 56.946 35.352 56.417 34.861 56.7 C 34.163 56.201 34.23 55.012 33.522 54.522 C 33.909 54.106 34.018 53.438 34.727 53.313 C 34.73 53.553 35.093 53.467 34.995 53.797 C 35.012 54.256 34.389 54.136 34.326 54.522 C 34.622 54.779 35.503 54.508 35.397 55.127 C 35.011 55.141 34.52 55.061 34.326 55.248 C 34.326 55.409 34.326 55.571 34.326 55.732 C 35.168 55.606 36.022 55.489 36.199 54.762 Z M 39.546 55.367 C 39.444 54.039 37.89 52.998 36.333 52.585 C 36.151 54.168 38.596 54.405 39.546 55.367 Z M 31.111 56.214 C 30.322 55.102 29.307 53.073 27.764 53.431 C 27.728 54.229 28.621 54.188 28.432 55.125 C 28.832 55.298 28.888 55.026 29.236 55.246 C 29.217 56.311 29.964 56.685 30.039 57.665 C 30.622 57.493 30.655 58.079 30.977 57.786 C 30.786 57.237 30.858 56.667 31.111 56.214 Z M 25.888 53.794 C 26.73 55.817 28.502 56.997 29.102 59.238 C 29.51 59.232 29.783 59.347 29.905 59.601 C 29.904 59.841 29.54 59.755 29.638 60.085 C 29.923 60.419 30.367 59.861 30.441 60.326 C 30.211 60.668 29.914 60.281 29.905 60.689 C 30.057 61.185 30.499 60.718 30.976 60.81 C 31.054 61.372 30.793 61.54 30.976 61.899 C 32.278 61.746 31.293 60.204 31.244 59.479 C 30.834 59.392 30.85 59.688 30.44 59.6 C 29.988 58.665 28.618 57.725 29.235 56.576 C 28.967 56.576 28.699 56.576 28.432 56.576 C 27.707 55.497 27.537 53.916 26.155 53.431 C 26.091 53.574 26.013 53.705 25.888 53.794 Z M 25.487 56.455 C 24.628 56.167 23.968 55.106 23.21 55.125 C 23.515 56.19 24.066 56.525 23.746 57.665 C 24.908 57.966 25.495 59.542 26.692 58.754 C 27.101 60.441 28.371 61.349 28.7 63.109 C 29.257 63.167 28.91 62.411 29.37 62.383 C 29.471 63.659 29.652 65.484 30.441 66.495 C 30.941 65.366 30.137 63.858 30.709 62.625 C 29.809 62.631 29.942 61.705 29.236 61.536 C 28.795 59.385 26.816 57.601 26.156 55.246 C 25.476 55.014 25.63 54.028 24.817 53.915 C 24.728 53.915 24.639 53.915 24.549 53.915 C 23.747 55.299 25.886 55.462 25.487 56.455 Z M 36.467 55.125 C 36.886 55.182 36.844 54.821 37.002 54.641 C 36.687 54.313 36.104 54.84 36.467 55.125 Z M 22.139 55.851 C 22.551 56.036 22.551 55.061 22.139 55.246 C 22.139 55.447 22.139 55.649 22.139 55.851 Z M 38.073 56.455 C 38.5 56.864 38.066 57.321 38.341 57.786 C 39.464 57.886 38.292 56.62 39.145 56.576 C 39.32 56.7 39.638 56.694 39.814 56.818 C 40.193 56.558 40.036 56.173 39.948 55.729 C 39.769 55.729 39.591 55.729 39.412 55.729 C 39.448 56.669 38.486 55.955 38.073 56.455 Z M 36.065 56.335 C 36.047 55.948 35.761 55.802 35.261 55.851 C 35.049 56.448 35.723 56.608 36.065 56.335 Z M 53.204 56.576 C 53.178 56.347 52.423 56.168 52.267 56.455 C 52.512 56.488 53.018 56.891 53.204 56.576 Z M 57.355 57.665 C 56.057 57.263 54.751 56.644 53.472 56.819 C 53.643 56.825 53.657 56.974 53.874 56.94 C 56.66 57.81 59.273 58.836 62.042 59.722 C 63.908 60.576 65.47 62.349 67.532 62.625 C 64.95 60.371 61.07 58.816 57.355 57.665 Z M 39.546 58.028 C 39.996 58.065 40.707 57.866 40.617 58.391 C 40.118 58.609 39.902 59.451 40.35 59.843 C 40.351 59.522 40.275 59.13 40.617 59.117 C 40.879 59.343 40.658 59.56 40.617 59.843 C 41.091 60.314 41.433 60.128 41.956 59.843 C 42.514 60.654 42.02 62.344 43.295 62.141 C 42.923 61.428 42.754 60.533 42.759 59.48 C 42.149 59.628 42.233 59.148 41.688 59.238 C 41.474 59.328 41.718 59.831 41.286 59.722 C 40.942 59.579 40.536 58.288 41.286 58.271 C 41.582 58.366 41.261 59.019 41.822 58.876 C 41.946 58.665 41.817 58.226 42.224 58.271 C 42.623 58.273 42.395 58.841 42.625 58.997 C 43.1 59.062 42.954 58.568 43.429 58.634 C 43.605 59.12 44.141 59.281 44.5 59.601 C 44.621 58.523 43.609 58.47 43.429 57.666 C 41.981 57.834 41.166 57.519 39.679 57.303 C 39.526 57.445 39.529 57.73 39.546 58.028 Z M 30.441 58.875 C 30.852 59.06 30.852 58.085 30.441 58.27 C 30.441 58.471 30.441 58.673 30.441 58.875 Z M 39.011 58.391 C 38.991 58.731 39.339 58.74 39.68 58.754 C 39.83 58.265 39.269 58.156 39.011 58.391 Z M 35.663 61.899 C 35.52 61.786 35.621 61.453 35.261 61.536 C 35.298 62.013 34.689 61.906 34.726 62.383 C 35.135 62.497 35.145 62.971 35.663 62.988 C 36.024 62.673 35.499 62.623 35.529 62.262 C 35.664 62.262 35.688 62.164 35.797 62.14 C 36.071 62.228 36.327 62.519 36.6 62.262 C 36.271 61.811 36.425 61.59 36.467 60.931 C 36.295 60.925 36.281 60.777 36.065 60.81 C 35.666 60.933 35.948 61.672 35.663 61.899 Z M 30.575 61.899 C 30.638 61.519 30.407 61.404 30.173 61.294 C 29.913 61.527 30.033 62.034 30.575 61.899 Z M 43.831 62.503 C 43.258 62.605 42.815 62.556 42.492 62.624 C 42.171 63.129 42.547 63.475 42.76 63.834 C 42.983 63.632 43.737 63.91 43.697 63.471 C 43.665 63.083 42.941 63.855 43.028 63.229 C 43.415 63.014 43.743 62.746 44.367 62.745 C 44.414 63.165 43.686 63.205 44.1 63.592 C 44.596 63.678 44.674 63.385 45.17 63.471 C 45.48 63.715 45.886 63.873 45.974 64.318 C 45.855 64.613 45.226 64.449 45.304 64.922 C 45.426 65.175 45.699 65.291 46.107 65.285 C 46.293 65.09 46.221 64.662 46.509 64.559 C 47.005 64.636 46.918 65.239 46.911 65.769 C 46.198 66.093 45.681 66.594 45.572 67.463 C 46.075 67.393 45.85 66.666 46.375 66.616 C 46.738 66.691 46.709 67.121 47.179 67.1 C 49.322 65.291 46.784 64.533 46.107 62.987 C 45.608 62.858 45.726 63.287 45.304 63.229 C 44.882 62.884 44.923 62.122 44.501 61.777 C 44.366 61.777 44.233 61.777 44.099 61.777 C 43.835 61.861 44.132 62.453 43.831 62.503 Z M 69.407 62.624 C 69.744 62.868 70.324 62.557 70.345 62.14 C 69.956 62.233 69.574 62.332 69.407 62.624 Z M 40.885 63.35 C 41.17 63.057 40.587 62.816 40.35 62.625 C 40.042 62.938 40.334 63.443 40.885 63.35 Z M 79.852 65.77 C 77.463 64.882 73.645 62.412 71.549 62.746 C 71.111 62.816 70.668 63.079 70.478 63.592 C 71.039 63.811 71.873 63.354 72.488 63.23 C 75.71 64.471 78.998 65.654 82.262 66.858 C 82.68 66.895 81.922 66.508 82.396 66.495 C 83.715 66.832 84.97 67.639 86.413 67.947 C 87.003 68.073 87.666 67.916 88.288 68.068 C 90.903 68.706 92.674 70.622 95.385 69.761 C 95.867 70.091 96.242 70.519 96.725 70.85 C 99.67 71.132 101.068 72.814 103.42 73.633 C 102.577 72.257 100.35 72.132 99.403 70.85 C 100.86 70.945 101.485 71.792 102.884 71.939 C 101.803 70.254 98.227 70.824 97.126 69.157 C 96.539 69.158 96.082 68.413 95.52 68.794 C 96.075 69.261 97.396 69.676 97.394 70.245 C 92.508 68.774 86.656 67.527 81.996 66.254 C 82.324 66.268 82.024 66.653 81.862 66.616 C 81.302 66.055 80.691 66.082 79.852 65.77 Z M 69.273 63.35 C 69 63.072 68.471 63.026 67.934 62.988 C 67.897 63.498 69.107 64.145 69.273 63.35 Z M 39.011 70.124 C 38.602 70.239 38.591 70.712 38.073 70.729 C 37.928 70.419 38.48 70.153 38.073 70.003 C 37.457 70.45 36.667 69.864 36.065 69.64 C 36.142 69.388 36.397 69.295 36.333 68.915 C 35.775 68.639 35.269 69.903 35.663 70.487 C 39.292 69.757 39.775 77.527 41.823 74.237 C 41.587 74.128 41.602 73.792 41.287 73.753 C 41.262 74.093 41.054 74.269 40.618 74.237 C 39.907 73.992 39.807 73.195 39.814 72.302 C 39.533 71.986 39.292 72.199 39.011 72.06 C 39.222 71.466 38.746 71.493 38.475 71.334 C 38.498 71.153 38.427 70.887 38.609 70.85 C 38.897 70.993 38.93 71.367 39.546 71.213 C 39.369 70.155 38.975 69.541 39.546 68.673 C 38.623 68.591 38.759 69.151 38.609 69.52 C 38.059 69.372 38.532 69.052 38.609 68.794 C 38.31 68.443 37.442 69.145 37.27 68.552 C 37.205 68.171 37.681 68.278 37.538 67.826 C 37.073 67.516 36.378 68.088 35.931 67.826 C 35.937 67.467 35.533 66.86 36.065 66.737 C 36.245 66.817 36.314 66.996 36.333 67.221 C 37.867 67.155 37.876 67.899 38.743 68.551 C 38.778 68.381 39.037 68.413 39.145 68.309 C 38.761 67.221 37.778 65.875 36.199 66.616 C 36.199 66.414 36.199 66.213 36.199 66.011 C 36.432 66.02 36.615 65.983 36.734 65.89 C 36.6 64.963 36.744 63.785 36.065 63.35 C 35.614 64.009 36.568 64.31 36.333 65.164 C 35.961 65.473 35.366 65.582 34.592 65.527 C 34.528 65.907 34.782 66 34.86 66.253 C 35.362 66.344 35.152 65.791 35.529 65.769 C 35.586 66 35.912 65.988 35.797 66.374 C 35.691 66.641 35.168 66.531 35.128 66.858 C 36.045 68.288 37.293 69.417 39.011 70.124 Z M 42.492 64.197 C 42.642 65.27 43.205 65.973 43.697 66.737 C 43.516 66.776 43.441 66.909 43.162 66.858 C 43.56 67.682 42.764 68.212 43.162 69.036 C 43.54 69.136 43.508 68.866 43.831 68.915 C 44.051 68.589 43.649 68.294 43.965 67.948 C 44.497 68.195 44.966 67.856 44.902 67.222 C 44.295 67.157 44.545 67.866 43.965 67.826 C 43.852 67.119 44.364 66.977 44.501 66.496 C 44.41 66.175 43.758 66.36 43.832 65.891 C 44.323 65.802 44.576 66.189 44.903 65.891 C 44.902 65.04 43.563 66.14 43.698 65.166 C 44.131 65.114 44.856 65.325 44.903 64.924 C 44.493 64.609 43.237 65.059 43.162 64.44 C 43.968 64.362 45.238 64.702 45.305 63.957 C 44.724 63.905 43.344 64.097 42.492 64.197 Z M 79.852 64.439 C 79.441 64.366 79.154 64.182 78.78 64.076 C 78.791 64.436 79.633 64.667 79.852 64.439 Z M 69.139 65.164 C 69.798 65.449 69.911 64.184 69.406 64.197 C 69.493 64.678 69.052 64.683 69.139 65.164 Z M 30.977 64.439 C 31.187 65.379 32.055 66.366 31.914 67.221 C 31.638 67.188 31.788 66.77 31.512 66.737 C 31.162 67.617 31.427 68.569 31.244 69.399 C 31.29 70.022 33.612 70.692 33.788 69.64 C 33.232 69.43 33.052 70.172 32.717 69.761 C 32.815 69.406 33.135 69.251 33.655 69.278 C 33.71 68.704 33.589 68.288 33.387 67.948 C 33.016 67.827 33.008 68.634 32.717 68.189 C 32.756 67.74 33.426 67.862 33.387 67.342 C 32.754 66.293 32.193 64.561 30.977 64.439 Z M 83.466 65.77 C 82.425 65.379 81.062 64.637 79.985 64.681 C 81.094 65.01 82.341 65.857 83.466 65.77 Z M 81.056 65.648 C 80.723 65.734 80.506 65.116 80.253 65.527 C 80.395 65.614 80.87 66 81.056 65.648 Z M 45.304 66.375 C 45.834 66.514 46.016 65.812 45.572 65.77 C 45.515 66 45.19 65.988 45.304 66.375 Z M 42.09 71.212 C 43 71.268 42.665 70.2 43.429 70.124 C 43.839 70.318 44.09 70.656 44.233 71.091 C 45.705 70.651 45.846 71.597 46.643 72.059 C 46.953 71.81 46.736 71.015 46.643 70.728 C 46.134 70.522 45.035 70.69 44.366 70.366 C 44.208 70.288 44.126 69.761 43.964 69.64 C 43.697 69.44 43.316 69.589 43.161 69.519 C 42.265 69.116 42.83 68.304 42.357 67.946 C 41.744 68.983 42.996 70.102 42.09 71.212 Z M 81.056 68.672 C 80.7 68.763 79.875 69.554 80.387 69.64 C 81.649 69.632 82.048 67.862 80.655 68.067 C 80.919 68.151 81.011 68.391 81.056 68.672 Z M 45.036 69.64 C 45.036 69.479 45.036 69.317 45.036 69.156 C 44.902 69.156 44.768 69.156 44.635 69.156 C 44.597 69.472 44.684 69.677 45.036 69.64 Z M 40.618 70.245 C 40.381 70.137 40.447 69.754 39.949 69.882 C 39.956 70.675 39.995 71.253 40.083 71.697 C 41.05 71.689 41.074 71.178 41.154 70.608 C 41.951 70.795 42.116 69.933 41.823 69.52 C 41.689 69.52 41.555 69.52 41.421 69.52 C 41.373 69.959 41.105 70.201 40.618 70.245 Z M 89.895 72.423 C 89.366 71.73 88.644 71.212 87.886 70.729 C 88.432 71.403 88.923 72.131 89.895 72.423 Z M 32.583 71.092 C 32.666 71.703 33.269 71.844 33.253 72.544 C 33.12 72.867 32.437 72.693 32.449 73.148 C 33.242 74.165 34.94 74.365 36.333 74.842 C 36.472 73.667 36.176 72.886 35.797 72.181 C 35.732 71.8 36.411 72.09 36.467 71.818 C 35.203 71.515 33.826 71.165 32.583 71.092 Z M 42.224 73.753 C 42.93 72.608 44.681 72.484 46.241 72.664 C 45.238 71.063 40.766 71.766 42.224 73.753 Z M 103.15 75.325 C 104.026 74.023 102.171 73.789 101.275 73.39 C 100.187 72.904 99.211 72.132 98.33 71.817 C 98.3 71.722 98.217 71.677 98.062 71.696 C 99.037 73.557 101.016 74.512 103.15 75.325 Z M 40.484 72.786 C 41.001 72.88 41.26 72.045 40.751 71.939 C 40.723 72.291 40.226 72.538 40.484 72.786 Z M 70.211 73.027 C 70.101 73.369 70.4 73.341 70.345 73.632 C 69.279 74.181 67.844 73.648 67.131 74.478 C 68.012 74.529 69.979 74.564 70.745 74.115 C 71.724 74.603 73.214 75.272 74.495 75.083 C 73.721 74.361 71.323 74.629 71.817 73.147 C 71.228 73.022 70.741 72.914 70.211 73.027 Z M 90.965 73.148 C 90.9 73.529 91.206 73.575 91.099 73.995 C 91.839 74.135 92.496 73.598 93.51 73.632 C 93.19 72.972 91.839 72.946 90.965 73.148 Z M 92.304 74.721 C 91.939 75.048 92.651 75.021 92.572 75.446 C 92.333 75.633 91.901 75.647 92.036 76.172 C 92.819 76.234 92.598 75.39 93.242 75.325 C 94.635 75.328 95.72 76.214 96.99 75.93 C 97.105 75.342 96.121 75.746 96.187 75.204 C 96.835 74.941 97.881 76.295 98.731 75.445 C 98.173 75.183 97.03 75.451 97.124 74.599 C 98.185 74.409 98.854 75.209 99.668 74.841 C 97.725 73.921 94.239 73.751 92.304 74.721 Z M 37.003 76.172 C 35.659 75.289 33.863 74.815 32.316 74.115 C 32.783 75.711 35.026 76.343 37.003 76.172 Z M 49.723 75.446 C 49.695 76.146 50.031 76.673 49.589 77.14 C 49.304 76.672 48.54 76.635 48.518 75.931 C 47.984 75.852 48.134 76.391 48.116 76.777 C 48.69 76.945 49.205 77.164 49.723 77.382 C 49.895 77.053 50.409 77.033 50.526 76.656 C 50.262 76.572 50.17 76.334 50.125 76.051 C 50.316 76.023 50.351 75.853 50.526 75.81 C 50.816 76.701 53.552 75.689 52.669 77.02 C 52.775 77.527 53.19 77.393 52.936 77.987 C 53.259 77.938 53.227 78.208 53.606 78.108 C 53.699 77.459 52.943 77.578 52.936 77.02 C 53.012 76.845 53.145 76.725 53.338 76.657 C 53.57 77.027 54.43 77.583 54.677 76.898 C 53.91 76.584 52.697 76.671 52.803 75.568 C 52.291 75.383 51.576 75.641 50.928 75.689 C 50.898 75.461 51.079 75.422 51.062 75.205 C 50.406 75.097 50.433 75.603 49.723 75.446 Z M 99.938 75.809 C 100.587 75.721 101.178 76.142 101.543 75.931 C 101.512 75.021 100.135 75.098 99.938 75.809 Z M 32.449 76.172 C 32.624 76.781 33.768 76.513 33.788 77.26 C 34.744 77.027 35.767 77.604 36.065 78.349 C 35.799 78.351 35.894 78.679 35.529 78.591 C 34.69 78.128 33.382 77.718 32.449 77.018 C 31.811 78.608 34.827 78.869 36.199 79.438 C 36.237 78.707 36.091 77.809 36.333 77.26 C 34.884 76.916 33.814 76.23 32.583 75.688 C 32.541 75.852 32.393 75.919 32.449 76.172 Z M 55.615 76.414 C 55.612 75.887 54.284 75.927 54.008 76.051 C 54.551 76.13 55.168 76.634 55.615 76.414 Z M 51.999 76.777 C 51.764 76.846 51.213 76.63 51.196 76.898 C 51.502 76.99 52.031 77.353 51.999 76.777 Z M 51.999 77.986 C 52.564 78.082 52.457 77.338 51.999 77.382 C 51.999 77.584 51.999 77.785 51.999 77.986 Z M 51.33 78.349 C 49.984 78.091 48.687 77.696 47.045 77.986 C 49.387 78.612 52.318 79.35 55.212 79.075 C 54.298 79.117 53.297 78.457 51.865 78.591 C 51.577 78.458 52.223 77.869 51.463 77.986 C 51.098 77.69 51.937 78.349 51.33 78.349 Z M 33.119 79.68 C 32.827 79.658 32.693 79.779 32.717 80.043 C 33.065 80.133 33.17 80.44 33.521 80.527 C 34.42 79.72 35.175 80.661 36.333 80.648 C 35.385 79.771 33.869 79.406 32.583 78.834 C 32.547 79.31 33.156 79.203 33.119 79.68 Z M 68.067 80.164 C 69.726 80.407 72.629 80.654 74.228 80.164 C 72.057 80.065 70.033 79.845 68.067 80.164 Z M 45.438 80.284 C 47.338 81.235 52.008 82.003 54.945 81.615 C 52.004 81.044 48.551 80.298 45.438 80.284 Z M 79.048 80.284 C 79.126 81.322 78.327 81.569 77.977 82.22 C 77.832 83.642 78.159 84.636 78.914 85.244 C 80.038 84.897 81.678 85.309 82.396 84.397 C 81.787 83.885 81.589 85.081 81.057 84.639 C 81.293 84.248 81.381 83.722 82.128 83.792 C 81.253 82.704 82.613 80.937 81.324 80.163 C 80.412 80.129 79.539 80.278 79.048 80.284 Z M 77.574 80.769 C 77.839 80.993 78.56 80.949 78.378 80.406 C 77.904 80.341 77.688 80.508 77.574 80.769 Z M 33.922 81.253 C 34.002 81.503 33.757 82.048 34.057 82.1 C 34.53 81.801 34.943 81.449 34.994 80.77 C 34.86 80.77 34.727 80.77 34.593 80.77 C 34.686 81.216 34.38 81.303 33.922 81.253 Z M 34.459 82.704 C 34.124 82.141 33.498 82.484 33.12 82.1 C 33.232 81.959 33.296 81.776 33.254 81.495 C 32.844 81.583 32.86 81.286 32.45 81.374 C 32.377 81.803 32.924 81.671 32.852 82.1 C 32.432 82.042 32.305 82.251 32.182 82.462 C 33.074 83.031 34.574 83.409 35.798 83.309 C 35.603 82.836 35.968 82.209 35.932 81.253 C 35.666 81.251 35.761 80.923 35.396 81.011 C 35.735 81.846 35.266 82.551 34.459 82.704 Z M 50.526 83.188 C 50.575 82.314 49.386 81.993 48.652 82.221 C 48.747 83.001 49.887 83.276 50.526 83.188 Z M 46.643 82.099 C 46.127 81.454 44.704 81.645 43.964 81.736 C 44.4 81.826 44.372 82.336 44.634 82.583 C 44.804 82.293 45.07 82.091 45.571 82.099 C 45.876 82.267 46.09 82.518 46.375 82.704 C 47.139 82.126 47.554 82.901 48.383 82.945 C 48.415 82.772 48.603 82.741 48.651 82.582 C 48.311 82.091 47.345 81.549 46.643 82.099 Z M 50.66 82.583 C 50.726 83.438 51.882 83.584 52.803 83.308 C 53.377 83.878 54.072 83.703 54.945 83.55 C 55.1 83.694 55.097 83.978 55.079 84.276 C 55.548 84.216 55.951 84.095 56.552 84.155 C 56.487 83.774 56.962 83.881 56.82 83.429 C 56.175 84.1 55.17 83.657 54.811 83.067 C 53.384 83.567 52.087 82.389 50.66 82.583 Z M 73.156 82.825 C 73.731 83.135 75.456 83.268 75.834 82.704 C 75.213 82.351 73.615 82.332 73.156 82.825 Z M 53.874 84.156 C 51.055 83.919 48.297 82.985 45.438 83.188 C 47.916 83.659 51.327 84.55 53.874 84.156 Z M 32.048 83.793 C 33.273 84.177 34.477 84.583 35.797 84.881 C 35.797 84.679 35.797 84.478 35.797 84.277 C 34.502 84.34 33.687 83.511 32.316 83.309 C 32.246 83.488 32.118 83.614 32.048 83.793 Z M 47.982 84.518 C 48.669 84.607 50.331 84.89 50.66 84.518 C 50.103 84.168 48.436 83.901 47.982 84.518 Z M 32.717 91.171 C 32.362 90.848 32.08 91.21 31.78 91.292 C 31.697 91.803 32.508 91.904 32.182 92.26 C 31.985 92.686 30.884 92.297 30.843 92.864 C 31.183 92.879 31.362 93.041 31.378 93.348 C 30.834 93.904 30.697 94.829 29.638 94.921 C 29.541 95.291 29.869 95.276 29.771 95.647 C 29.58 95.675 29.545 95.846 29.37 95.889 C 28.716 95.98 28.33 95.372 27.897 95.647 C 28.769 96.556 27.986 98.566 26.558 98.066 C 26.912 97.62 27.426 97.318 27.495 96.614 C 27.345 96.589 27.287 96.481 27.227 96.373 C 26.693 96.253 26.824 96.735 26.29 96.614 C 26.512 95.903 26.329 95.54 26.022 95.042 C 26.496 93.168 27.816 91.426 28.165 89.841 C 26.204 91.751 23.467 96.211 26.424 98.671 C 26.846 98.73 26.896 98.454 27.361 98.55 C 27.433 98.978 26.887 98.847 26.959 99.276 C 27.369 99.363 27.447 99.152 27.763 99.154 C 30.289 94.985 33.577 91.505 36.467 87.663 C 37.207 87.526 37.568 87.046 37.672 86.333 C 35.832 85.736 34.042 85.096 32.316 84.397 C 31.459 85.351 32.744 86.292 31.646 86.937 C 32.094 87.525 32.606 86.656 33.119 86.816 C 32.882 86.495 32.617 85.726 32.851 85.365 C 34.099 85.388 33.24 86.646 33.922 87.058 C 34.145 86.816 33.91 86.161 34.189 85.97 C 34.695 85.956 34.91 86.207 34.993 86.574 C 34.382 86.91 33.873 87.337 33.118 87.541 C 32.801 88.393 33.535 88.773 32.984 89.115 C 32.299 88.814 32.946 87.884 32.181 87.541 C 31.872 87.798 32.584 89.138 31.913 89.356 C 30.602 89.385 31.459 88.185 30.306 88.146 C 30.763 89.174 28.939 89.06 30.038 89.598 C 30.114 89.303 30.153 88.976 30.574 88.993 C 31.264 89.548 30.793 90.588 30.574 91.291 C 30.174 91.147 30.119 91.258 29.771 91.413 C 30.117 92.056 29.666 92.678 29.369 93.106 C 28.252 93.219 29.098 92.148 28.298 92.139 C 27.962 92.579 29.118 93.04 28.566 93.712 C 28.765 93.854 29.164 93.816 29.101 94.196 C 29.62 94.061 30.441 94.196 30.44 93.591 C 29.841 93.608 29.696 93.807 29.637 93.229 C 29.635 92.742 30.71 93.231 30.708 92.744 C 30.433 92.549 30.37 92.162 30.172 91.897 C 30.525 91.366 30.962 92.088 31.378 91.776 C 31.261 91.477 31.116 90.838 31.378 90.566 C 32.106 91.08 33.057 89.785 33.52 90.445 C 33.022 90.721 32.961 91.391 32.449 91.655 C 32.296 91.275 32.66 91.361 32.717 91.171 Z M 45.974 85.849 C 47.453 85.671 50.276 86.283 51.999 86.091 C 52.553 86.486 52.233 86.662 51.865 87.058 C 52.338 87.122 52.464 87.412 52.936 87.179 C 52.936 86.656 52.626 86.411 52.669 85.849 C 50.282 84.972 47.179 85.351 44.768 84.397 C 44.754 85.258 45.715 85.235 45.974 85.849 Z M 64.185 84.881 C 67.135 85.586 73.044 85.708 75.968 84.881 C 71.936 84.548 67.716 84.422 64.185 84.881 Z M 90.965 85.486 C 91.397 85.311 91.926 85.224 91.903 84.639 C 91.385 84.737 91.307 85.231 90.965 85.486 Z M 46.509 86.695 C 48.033 86.833 50.55 87.449 51.731 86.937 C 49.401 86.071 46.26 86.825 44.367 85.486 C 44.254 86.691 45.316 86.589 46.509 86.695 Z M 68.469 87.301 C 68.167 86.917 67.056 87.007 66.862 87.422 C 67.686 87.711 68.664 87.117 69.004 87.785 C 68.796 88.236 68.401 88.33 67.799 88.148 C 67.817 88.824 68.413 88.232 69.004 88.39 C 69.142 87.909 69.342 87.485 70.076 87.542 C 70.062 86.877 68.822 86.995 68.469 87.301 Z M 30.843 87.301 C 30.886 87.585 31.054 87.755 30.977 88.148 C 31.319 88.017 31.615 88.515 31.78 88.148 C 31.038 88.093 31.299 87.556 31.646 87.301 C 31.225 87.361 31.123 87.037 30.843 87.301 Z M 70.612 87.421 C 70.84 87.601 71.851 87.941 71.817 87.3 C 71.419 87.305 70.746 86.941 70.612 87.421 Z M 43.965 88.994 C 44.593 89.117 44.568 88.651 44.768 88.39 C 46.06 88.097 47.035 88.769 48.384 88.511 C 48.521 88.871 48.639 89.248 49.053 89.357 C 50.595 88.78 52.507 89.095 54.543 89.236 C 51.566 87.965 46.502 87.665 43.028 87.906 C 43.84 87.817 43.444 88.82 43.965 88.994 Z M 69.54 88.51 C 70.55 88.139 71.856 88.763 72.621 88.147 C 71.583 88.257 70.339 87.769 69.54 88.51 Z M 73.424 88.268 C 73.44 88.535 73.993 88.32 74.228 88.39 C 74.437 87.974 73.331 87.815 73.424 88.268 Z M 59.498 99.154 C 60.576 98.765 61.662 97.899 63.113 98.55 C 63.442 98.255 63.014 98.026 63.113 97.583 C 65.051 97.116 66.267 95.997 67.8 95.163 C 67.056 95.161 67.454 93.953 68.067 94.075 C 68.616 94.374 68.109 94.838 67.934 95.163 C 69.6 94.33 71.126 93.37 72.218 92.018 C 71.686 91.913 71.545 91.913 71.013 92.018 C 71.19 90.987 70.297 90.706 70.879 89.961 C 68.073 89.601 64.664 89.387 61.773 89.478 C 62.693 90.353 64.358 91.127 62.711 92.38 C 61.685 91.942 61.658 93.223 60.97 93.469 C 61.189 93.714 61.581 93.803 61.639 94.194 C 60.849 94.247 60.283 94.501 60.3 95.283 C 60.642 95.219 60.769 95.122 60.969 95.404 C 60.955 95.941 61.344 96.114 61.237 96.735 C 60.824 96.819 60.98 96.819 60.567 96.735 C 60.327 97.454 60.724 97.335 60.969 97.823 C 60.749 98.433 59.395 98.656 59.498 99.154 Z M 45.84 89.841 C 45.486 89.804 45.4 90.008 45.438 90.325 C 46.149 90.287 46.623 90.464 46.509 91.172 C 45.887 91.211 45.306 91.211 45.17 90.809 C 44.893 91.175 43.612 91.318 45.036 91.293 C 45.068 91.465 45.256 91.497 45.304 91.656 C 45.403 92.099 44.975 92.328 45.304 92.623 C 46.23 92.774 45.598 91.518 46.241 91.414 C 46.788 91.282 46.902 91.543 47.045 91.776 C 46.88 91.225 47.514 91.394 47.58 91.051 C 46.752 91.114 47.23 89.961 47.982 90.325 C 47.903 90.639 48.036 90.76 48.384 90.688 C 48.437 90.152 47.718 89.682 47.714 89.599 C 47.717 90.38 46.07 90.309 45.84 89.841 Z M 75.968 90.204 C 76.683 90.794 74.585 91.516 74.896 92.139 C 75.624 91.304 76.706 90.789 77.04 89.599 C 76.636 89.76 76.248 89.933 75.968 90.204 Z M 49.991 91.897 C 50.581 91.946 50.536 91.422 50.659 91.05 C 50.046 91.04 50.256 90.285 49.991 89.961 C 49.512 90.537 49.579 91.322 49.991 91.897 Z M 28.834 90.688 C 29.268 90.619 29.507 90.725 29.638 90.929 C 29.573 90.549 30.251 90.838 30.307 90.566 C 29.786 90.407 29.029 90.352 28.834 90.688 Z M 61.372 91.655 C 61.662 91.756 61.829 91.969 62.31 91.897 C 62.232 91.504 62.401 91.334 62.444 91.05 C 61.813 91.004 61.294 91.06 61.372 91.655 Z M 55.615 92.139 C 55.714 91.766 55.247 91.906 55.347 91.535 C 55.153 91.601 54.655 91.393 54.677 91.656 C 55.068 91.746 55.342 91.942 55.615 92.139 Z M 73.558 92.26 C 73.909 92.295 74.133 92.217 74.093 91.897 C 73.743 91.863 73.517 91.941 73.558 92.26 Z M 73.825 93.106 C 74.034 92.932 74.292 92.802 74.362 92.502 C 74.037 92.502 73.505 92.926 73.825 93.106 Z M 72.352 93.349 C 72.694 93.334 72.872 93.173 72.889 92.865 C 72.546 92.879 72.369 93.041 72.352 93.349 Z M 27.764 94.438 C 27.743 94.738 27.973 94.812 28.031 95.042 C 28.346 95.044 28.425 94.833 28.834 94.921 C 28.834 94.76 28.834 94.598 28.834 94.437 C 28.352 94.395 28.189 94.252 27.764 94.438 Z M 27.227 95.889 C 27.5 95.772 27.517 95.425 27.495 95.042 C 26.829 94.838 26.503 95.912 27.227 95.889 Z M 59.9 96.493 C 60.21 96.454 60.413 96.513 60.569 96.614 C 60.389 96.253 60.155 95.94 60.033 95.526 C 60.063 95.915 59.797 96.038 59.9 96.493 Z M 43.831 98.187 C 43.659 98.021 43.249 98.067 42.894 98.066 C 42.729 98.468 43.799 98.362 43.831 98.187 Z M 25.754 99.034 C 25.708 98.753 25.667 98.467 25.219 98.55 C 25.048 99.027 25.585 98.864 25.754 99.034 Z M 61.239 99.276 C 61.586 99.529 62.38 99.411 62.31 98.913 C 61.953 98.605 61.139 98.56 61.239 99.276 Z M 26.558 100.001 C 26.58 99.861 26.769 99.87 26.959 99.88 C 26.98 99.297 26.266 99.378 25.888 99.154 C 26 99.538 26.279 99.769 26.558 100.001 Z M 59.766 99.76 C 60.1 100.002 60.867 99.859 60.837 99.397 C 60.49 99.144 59.696 99.261 59.766 99.76 Z M 58.293 100.727 C 58.792 100.775 59.078 100.63 59.096 100.243 C 58.828 100.243 58.56 100.243 58.293 100.243 C 58.293 100.405 58.293 100.566 58.293 100.727 Z M 48.116 101.816 C 48.049 102.292 49.047 102.036 48.919 101.695 C 48.59 101.679 48.274 101.677 48.116 101.816 Z M 39.011 102.541 C 41.047 102.602 44.85 102.818 47.045 102.058 C 44.745 102.101 41.395 102.177 39.011 102.541 Z M 50.393 103.025 C 50.697 102.857 50.912 102.607 51.197 102.421 C 51.018 102.421 50.839 102.421 50.66 102.421 C 50.697 102.669 50.158 102.996 50.393 103.025 Z M 47.714 103.388 C 48.3 103.232 49.053 103.227 49.455 102.904 C 48.778 102.406 48.002 102.855 47.714 103.388 Z M 36.734 103.147 C 37.087 103.273 37.556 103.291 38.073 103.268 C 38.066 102.681 36.826 102.97 36.734 103.147 Z M 38.341 103.267 C 39.632 103.42 41.207 103.519 42.492 103.509 C 43.842 103.498 45.222 103.689 46.241 103.509 C 43.749 102.959 40.769 103.195 38.341 103.267 Z M 41.689 104.357 C 40.241 103.805 37.638 103.882 36.333 103.873 C 37.579 104.377 40.237 104.838 41.689 104.357 Z M 43.028 104.961 C 43.667 105.055 43.89 104.772 44.501 104.84 C 44.429 104.367 42.998 104.557 43.028 104.961 Z" style="fill: rgb(0, 102, 153); stroke: none;"/>
</svg>